<mxfile host="app.diagrams.net" modified="2023-12-06T04:25:27.649Z" agent="Mozilla/5.0 (iPad; CPU OS 17_1 like Mac OS X) AppleWebKit/605.1.15 (KHTML, like Gecko) CriOS/119.0.6045.169 Mobile/15E148 Safari/604.1" etag="yhzPpwORdEHKZsRePIcS" version="22.1.5" type="github">
  <diagram name="第 1 页" id="ZQfI-tUy3S1_ueaoFlP3">
    <mxGraphModel dx="1078" dy="596" grid="0" gridSize="10" guides="1" tooltips="1" connect="1" arrows="1" fold="1" page="0" pageScale="1" pageWidth="827" pageHeight="1169" math="0" shadow="0">
      <root>
        <mxCell id="0" />
        <mxCell id="1" parent="0" />
      </root>
    </mxGraphModel>
  </diagram>
</mxfile>
